<?xml version="1.0" standalone="no"?>
<svg version="1.0" xmlns="http://www.w3.org/2000/svg"
 width="512" height="512" viewBox="0 0 512.000000 512.000000"
 preserveAspectRatio="xMidYMid meet">
<circle cx="256" cy="256" r="228" fill="#1a1a1a"/>
<g transform="translate(0.000000,512.000000) scale(0.050000,-0.050000)"
fill="#d4ff00" stroke="none">
<path d="M4600 9698 c-2768 -319 -4624 -3016 -3940 -5725 422 -1669 1810
-3006 3480 -3351 410 -85 487 -92 970 -92 3663 1 5848 3982 3880 7070 -931
1461 -2677 2295 -4390 2098z m786 -324 c402 -184 -148 -529 -776 -487 -825 54
-407 568 442 545 188 -6 240 -14 334 -58z m1224 -1045 c291 -76 537 -336 564
-597 54 -530 -673 -717 -1105 -283 -453 455 -91 1045 541 880z m-3145 -176
c387 -117 452 -594 125 -922 -341 -343 -873 -328 -1057 29 -234 456 392 1055
932 893z m5061 -747 c307 -213 521 -835 382 -1110 -191 -376 -768 261 -772
851 -1 299 169 412 390 259z m-7114 -641 c28 -191 -72 -646 -202 -915 -234
-484 -397 -207 -238 405 145 559 390 843 440 510z m3875 -583 c315 -122 500
-510 401 -841 -186 -626 -1081 -671 -1306 -66 -211 566 345 1123 905 907z
m2674 -663 c519 -260 259 -1190 -349 -1253 -491 -51 -688 647 -307 1085 172
196 455 268 656 168z m-5306 -398 c634 -288 644 -1352 13 -1349 -509 3 -878
753 -587 1193 117 177 373 247 574 156z m6832 -151 c60 -253 -139 -1197 -262
-1245 -50 -19 -64 38 -65 255 0 584 247 1331 327 990z m-4045 -1594 c333 -152
464 -472 309 -752 -321 -581 -1341 -475 -1405 146 -49 470 605 831 1096 606z
m2515 -185 c278 -143 -10 -737 -466 -963 -334 -165 -565 -89 -547 181 28 444
685 952 1013 782z m-5374 -650 c329 -102 671 -419 737 -684 96 -381 -491 -336
-909 70 -410 398 -308 762 172 614z m3582 -1442 c205 -57 -45 -166 -528 -229
-521 -69 -926 -2 -671 110 244 108 976 181 1199 119z"/>
</g>
</svg>
